<svg xmlns="http://www.w3.org/2000/svg" viewBox="0 0 64 64" width="1024" height="1024"><rect width="64" height="64" rx="14" fill="#1B2B45"/><g transform="translate(10.4 10.4) scale(0.9)"><rect x="4" y="4" width="17" height="12" rx="3" fill="#F4F6F9"/><rect x="4" y="18" width="17" height="12" rx="3" fill="#F4F6F9"/><rect x="4" y="32" width="17" height="12" rx="3" fill="#F4F6F9"/><path d="M27 4H38A6 6 0 0 1 38 16H27A3 3 0 0 1 24 13V7A3 3 0 0 1 27 4Z" fill="#F4F6F9"/><path d="M27 18H40A4 4 0 0 1 44 22V26A4 4 0 0 1 40 30H27A3 3 0 0 1 24 27V21A3 3 0 0 1 27 18Z" fill="#13858A"/><path d="M27 32H38A6 6 0 0 1 38 44H27A3 3 0 0 1 24 41V35A3 3 0 0 1 27 32Z" fill="#F4F6F9"/><path d="M29.5 24.2l3 3 6-6" fill="none" stroke="#FFFFFF" stroke-width="2.8" stroke-linecap="round" stroke-linejoin="round"/></g></svg>
