<svg xmlns="http://www.w3.org/2000/svg" viewBox="0 0 224.85 48" width="1600" height="342"><rect x="4" y="4" width="17" height="12" rx="3" fill="#FFFFFF"/><rect x="4" y="18" width="17" height="12" rx="3" fill="#FFFFFF"/><rect x="4" y="32" width="17" height="12" rx="3" fill="#FFFFFF"/><path d="M27 4H38A6 6 0 0 1 38 16H27A3 3 0 0 1 24 13V7A3 3 0 0 1 27 4Z" fill="#FFFFFF"/><path d="M27 18H40A4 4 0 0 1 44 22V26A4 4 0 0 1 40 30H27A3 3 0 0 1 24 27V21A3 3 0 0 1 27 18Z" fill="#13858A"/><path d="M27 32H38A6 6 0 0 1 38 44H27A3 3 0 0 1 24 41V35A3 3 0 0 1 27 32Z" fill="#FFFFFF"/><path d="M29.5 24.2l3 3 6-6" fill="none" stroke="#FFFFFF" stroke-width="2.8" stroke-linecap="round" stroke-linejoin="round"/><path d="M79.49716312056738 31.788652482269505Q79.49716312056738 36.03262411347518 76.53120567375888 38.51631205673759Q73.56524822695036 41.0 68.26028368794326 41.0H52.49007092198582V7.144680851063832H67.72978723404256Q72.89007092198582 7.144680851063832 75.80780141843972 9.507801418439717Q78.72553191489362 11.870921985815603 78.72553191489362 15.921985815602838Q78.72553191489362 18.912056737588653 77.1581560283688 20.88936170212766Q75.59078014184396 22.866666666666667 72.98652482269503 23.638297872340427Q75.92836879432625 24.265248226950355 77.7127659574468 26.556028368794326Q79.49716312056738 28.846808510638297 79.49716312056738 31.788652482269505ZM60.736879432624114 20.84113475177305H66.13829787234043Q68.16382978723405 20.84113475177305 69.24893617021277 19.948936170212768Q70.3340425531915 19.05673758865248 70.3340425531915 17.320567375886526Q70.3340425531915 15.584397163120567 69.24893617021277 14.668085106382978Q68.16382978723405 13.75177304964539 66.13829787234043 13.75177304964539H60.736879432624114ZM71.15390070921985 30.679432624113474Q71.15390070921985 28.895035460992908 69.97234042553191 27.882269503546098Q68.79078014184397 26.86950354609929 66.71702127659574 26.86950354609929H60.736879432624114V34.34468085106383H66.81347517730497Q68.88723404255319 34.34468085106383 70.02056737588651 33.40425531914893Q71.15390070921985 32.46382978723404 71.15390070921985 30.679432624113474ZM94.01347517730497 13.70354609929078Q96.85886524822695 13.70354609929078 99.00496453900709 14.860992907801418Q101.15106382978723 16.018439716312056 102.30851063829788 17.899290780141843V14.089361702127661H110.55531914893618V41.0H102.30851063829788V37.190070921985814Q101.10283687943263 39.0709219858156 98.95673758865249 40.228368794326244Q96.81063829787234 41.38581560283688 93.96524822695035 41.38581560283688Q90.68581560283688 41.38581560283688 87.98510638297873 39.67375886524823Q85.28439716312057 37.96170212765958 83.71702127659574 34.802836879432625Q82.14964539007093 31.643971631205673 82.14964539007093 27.49645390070922Q82.14964539007093 23.348936170212767 83.71702127659574 20.214184397163123Q85.28439716312057 17.079432624113476 87.98510638297873 15.391489361702128Q90.68581560283688 13.70354609929078 94.01347517730497 13.70354609929078ZM96.42482269503546 20.88936170212766Q93.96524822695035 20.88936170212766 92.25319148936171 22.649645390070923Q90.54113475177306 24.409929078014184 90.54113475177306 27.49645390070922Q90.54113475177306 30.582978723404253 92.25319148936171 32.39148936170213Q93.96524822695035 34.2 96.42482269503546 34.2Q98.88439716312057 34.2 100.59645390070922 32.41560283687943Q102.30851063829788 30.631205673758863 102.30851063829788 27.54468085106383Q102.30851063829788 24.458156028368794 100.59645390070922 22.673758865248224Q98.88439716312057 20.88936170212766 96.42482269503546 20.88936170212766ZM142.81914893617022 25.278014184397165V41.0H134.62056737588654V26.38723404255319Q134.62056737588654 23.686524822695034 133.22198581560286 22.191489361702125Q131.82340425531916 20.69645390070922 129.46028368794327 20.69645390070922Q127.09716312056739 20.69645390070922 125.6985815602837 22.191489361702125Q124.30000000000001 23.686524822695034 124.30000000000001 26.38723404255319V41.0H116.05319148936171V14.089361702127661H124.30000000000001V17.658156028368793Q125.55390070921986 15.873758865248227 127.67588652482269 14.836879432624114Q129.79787234042553 13.8 132.4503546099291 13.8Q137.17659574468087 13.8 139.99787234042554 16.862411347517728Q142.81914893617022 19.92482269503546 142.81914893617022 25.278014184397165ZM158.29999999999998 13.70354609929078Q160.95248226950355 13.70354609929078 163.1468085106383 14.812765957446809Q165.34113475177304 15.921985815602838 166.5950354609929 17.802836879432625V5.312056737588655H174.8418439716312V41.0H166.5950354609929V37.141843971631204Q165.43758865248228 39.0709219858156 163.29148936170213 40.228368794326244Q161.145390070922 41.38581560283688 158.29999999999998 41.38581560283688Q154.9723404255319 41.38581560283688 152.27163120567377 39.67375886524823Q149.5709219858156 37.96170212765958 148.00354609929076 34.802836879432625Q146.43617021276594 31.643971631205673 146.43617021276594 27.49645390070922Q146.43617021276594 23.348936170212767 148.00354609929076 20.214184397163123Q149.5709219858156 17.079432624113476 152.27163120567377 15.391489361702128Q154.9723404255319 13.70354609929078 158.29999999999998 13.70354609929078ZM160.7113475177305 20.88936170212766Q158.25177304964538 20.88936170212766 156.53971631205673 22.649645390070923Q154.82765957446807 24.409929078014184 154.82765957446807 27.49645390070922Q154.82765957446807 30.582978723404253 156.53971631205673 32.39148936170213Q158.25177304964538 34.2 160.7113475177305 34.2Q163.1709219858156 34.2 164.88297872340425 32.41560283687943Q166.5950354609929 30.631205673758863 166.5950354609929 27.54468085106383Q166.5950354609929 24.458156028368794 164.88297872340425 22.673758865248224Q163.1709219858156 20.88936170212766 160.7113475177305 20.88936170212766ZM188.58652482269503 5.312056737588655V41.0H180.33971631205674V5.312056737588655ZM204.30851063829786 13.70354609929078Q207.15390070921987 13.70354609929078 209.3 14.860992907801418Q211.44609929078015 16.018439716312056 212.60354609929078 17.899290780141843V14.089361702127661H220.85035460992907V41.0H212.60354609929078V37.190070921985814Q211.39787234042552 39.0709219858156 209.25177304964538 40.228368794326244Q207.10567375886524 41.38581560283688 204.26028368794326 41.38581560283688Q200.9808510638298 41.38581560283688 198.28014184397165 39.67375886524823Q195.57943262411348 37.96170212765958 194.01205673758864 34.802836879432625Q192.44468085106382 31.643971631205673 192.44468085106382 27.49645390070922Q192.44468085106382 23.348936170212767 194.01205673758864 20.214184397163123Q195.57943262411348 17.079432624113476 198.28014184397165 15.391489361702128Q200.9808510638298 13.70354609929078 204.30851063829786 13.70354609929078ZM206.71985815602838 20.88936170212766Q204.26028368794326 20.88936170212766 202.5482269503546 22.649645390070923Q200.83617021276595 24.409929078014184 200.83617021276595 27.49645390070922Q200.83617021276595 30.582978723404253 202.5482269503546 32.39148936170213Q204.26028368794326 34.2 206.71985815602838 34.2Q209.17943262411347 34.2 210.89148936170213 32.41560283687943Q212.60354609929078 30.631205673758863 212.60354609929078 27.54468085106383Q212.60354609929078 24.458156028368794 210.89148936170213 22.673758865248224Q209.17943262411347 20.88936170212766 206.71985815602838 20.88936170212766Z" fill="#FFFFFF"/></svg>
